<?xml version="1.0" encoding="utf-8"?>
<!-- Generator: Adobe Illustrator 16.0.3, SVG Export Plug-In . SVG Version: 6.00 Build 0)  -->
<!DOCTYPE svg PUBLIC "-//W3C//DTD SVG 1.1//EN" "http://www.w3.org/Graphics/SVG/1.1/DTD/svg11.dtd">
<svg version="1.1" id="Layer_1" xmlns="http://www.w3.org/2000/svg" xmlns:xlink="http://www.w3.org/1999/xlink" x="0px" y="0px"
	 width="432px" height="288px" viewBox="0 0 432 288" enable-background="new 0 0 432 288" xml:space="preserve">
<g id="_x3C_Group_x3E__Ahroni_Bold_Font">
	<path fill="#282560" d="M108.205,200.435h-3.451l-0.98-7.64l-3.204,7.64H99.2l-3.059-7.64l-1.126,7.64h-3.441l2.255-13.268h3.412
		l2.683,7.076l2.838-7.076h3.44L108.205,200.435z"/>
	<path fill="#282560" d="M117.943,200.435h-7.552v-13.268h7.552v2.877h-4.102v2.265h3.878v2.877h-3.878v2.372h4.102V200.435z"/>
	<path fill="#282560" d="M129.685,200.124c-1.127,0.446-2.171,0.67-3.13,0.67c-1.672,0-3.168-0.534-4.49-1.604
		c-1.685-1.367-2.527-3.149-2.527-5.346c0-2.203,0.842-3.988,2.527-5.355c1.322-1.069,2.828-1.604,4.52-1.604
		c0.92,0,1.954,0.224,3.101,0.67v4.131c-0.325-0.397-0.655-0.697-0.993-0.899c-0.616-0.372-1.278-0.559-1.985-0.559
		c-0.896,0-1.674,0.271-2.336,0.81c-0.837,0.682-1.255,1.617-1.255,2.807c0,1.183,0.418,2.115,1.255,2.797
		c0.662,0.539,1.441,0.809,2.336,0.809c0.707,0,1.369-0.186,1.985-0.558c0.331-0.195,0.662-0.495,0.993-0.899V200.124z"/>
	<path fill="#282560" d="M143.749,200.435h-3.45v-5.521h-4.977v5.521h-3.45v-13.268h3.45v5.122h4.977v-5.122h3.45V200.435z"/>
	<path fill="#282560" d="M159.145,200.435h-3.684l-0.855-2.313h-4.763l-0.914,2.313h-3.645l5.103-13.268h3.762L159.145,200.435z
		 M153.673,195.497l-1.429-4.229l-1.448,4.229H153.673z"/>
	<path fill="#282560" d="M173.919,200.435h-3.45l-6.347-8.126v8.126h-3.45v-13.268h3.45l6.347,8.116v-8.116h3.45V200.435z"/>
	<path fill="#282560" d="M180.149,200.435h-3.45v-13.268h3.45V200.435z"/>
	<path fill="#282560" d="M192.493,200.124c-1.127,0.446-2.171,0.67-3.13,0.67c-1.672,0-3.168-0.534-4.49-1.604
		c-1.685-1.367-2.527-3.149-2.527-5.346c0-2.203,0.842-3.988,2.527-5.355c1.322-1.069,2.828-1.604,4.52-1.604
		c0.92,0,1.954,0.224,3.101,0.67v4.131c-0.325-0.397-0.655-0.697-0.993-0.899c-0.616-0.372-1.278-0.559-1.985-0.559
		c-0.896,0-1.674,0.271-2.336,0.81c-0.837,0.682-1.255,1.617-1.255,2.807c0,1.183,0.418,2.115,1.255,2.797
		c0.662,0.539,1.441,0.809,2.336,0.809c0.707,0,1.369-0.186,1.985-0.558c0.331-0.195,0.662-0.495,0.993-0.899V200.124z"/>
	<path fill="#282560" d="M207.286,200.435h-3.684l-0.855-2.313h-4.763l-0.914,2.313h-3.645l5.103-13.268h3.762L207.286,200.435z
		 M201.814,195.497l-1.429-4.229l-1.448,4.229H201.814z"/>
	<path fill="#282560" d="M216.403,200.435h-7.591v-13.268h3.45v10.391h4.141V200.435z"/>
	<path fill="#282560" d="M231.546,190.044h-2.857v10.391h-3.45v-10.391h-2.81v-2.877h9.117V190.044z"/>
	<path fill="#282560" d="M240.615,200.435h-7.553v-13.268h7.553v2.877h-4.102v2.265h3.878v2.877h-3.878v2.372h4.102V200.435z"/>
	<path fill="#282560" d="M251.997,196.046c0,2.244-0.985,3.707-2.955,4.389c-0.687,0.239-1.426,0.359-2.216,0.359
		c-1.659,0-3.198-0.502-4.617-1.506l1.478-2.78c1.039,0.939,2.055,1.409,3.049,1.409c0.447,0,0.827-0.104,1.14-0.314
		c0.363-0.235,0.545-0.569,0.545-1.001c0-0.393-0.201-0.72-0.604-0.981c-0.299-0.196-0.802-0.396-1.509-0.6
		c-0.857-0.252-1.396-0.427-1.616-0.524c-0.351-0.148-0.649-0.323-0.896-0.523c-0.707-0.583-1.061-1.463-1.061-2.641
		c0-1.23,0.365-2.249,1.098-3.059c0.855-0.951,1.996-1.427,3.422-1.427c1.432,0,2.835,0.359,4.208,1.079l-1.38,2.683
		c-0.754-0.59-1.514-0.885-2.28-0.885c-0.37,0-0.702,0.094-0.994,0.283c-0.331,0.215-0.497,0.501-0.497,0.858
		c0,0.351,0.218,0.653,0.652,0.907c0.195,0.117,0.779,0.318,1.753,0.604c1.22,0.357,2.09,0.863,2.609,1.519
		C251.772,194.453,251.997,195.17,251.997,196.046z"/>
	<path fill="#282560" d="M262.037,190.044h-2.857v10.391h-3.45v-10.391h-2.81v-2.877h9.117V190.044z"/>
	<path fill="#282560" d="M267.004,200.435h-3.451v-13.268h3.451V200.435z"/>
	<path fill="#282560" d="M283.041,200.435h-3.45l-6.347-8.126v8.126h-3.451v-13.268h3.451l6.347,8.116v-8.116h3.45V200.435z"/>
	<path fill="#282560" d="M299.117,193.067c0,1.438-0.162,2.611-0.486,3.519c-0.492,1.38-1.306,2.442-2.439,3.188
		c-1.095,0.713-2.391,1.069-3.888,1.069c-2.437,0-4.306-0.829-5.608-2.488c-0.985-1.257-1.478-2.757-1.478-4.5
		c0-1.931,0.577-3.554,1.73-4.869c1.309-1.497,3.136-2.246,5.481-2.246c1.568,0,2.896,0.402,3.985,1.206
		c0.777,0.569,1.441,1.412,1.992,2.526l-3.266,1.352c-0.279-0.619-0.604-1.084-0.975-1.394c-0.533-0.438-1.167-0.657-1.901-0.657
		c-1.501,0-2.548,0.772-3.14,2.317c-0.221,0.568-0.331,1.157-0.331,1.765c0,1.261,0.399,2.311,1.199,3.151
		c0.591,0.627,1.381,0.94,2.369,0.94c0.877,0,1.572-0.255,2.086-0.765c0.338-0.335,0.56-0.832,0.663-1.49h-2.838v-2.624H299.117z"/>
	<path fill="#282560" d="M314.405,200.435h-7.591v-13.268h3.451v10.391h4.14V200.435z"/>
	<path fill="#282560" d="M328.781,200.435h-3.684l-0.855-2.313h-4.763l-0.913,2.313h-3.646l5.104-13.268h3.761L328.781,200.435z
		 M323.31,195.497l-1.429-4.229l-1.448,4.229H323.31z"/>
	<path fill="#282560" d="M340.406,196.663c0,0.991-0.281,1.799-0.846,2.421c-0.816,0.9-2.061,1.351-3.731,1.351h-5.521v-13.268
		h5.132c2.488,0,3.732,1.153,3.732,3.461c0,0.693-0.136,1.272-0.408,1.739c-0.227,0.396-0.576,0.732-1.05,1.011
		c1.06,0.221,1.782,0.646,2.17,1.273C340.232,195.229,340.406,195.898,340.406,196.663z M335.975,191.084
		c0-0.603-0.271-1.001-0.813-1.195c-0.193-0.064-0.451-0.097-0.773-0.097h-0.629v2.595h0.629c0.593,0,1.019-0.146,1.277-0.438
		C335.871,191.716,335.975,191.428,335.975,191.084z M336.956,196.43c0-0.771-0.397-1.225-1.191-1.36
		c-0.253-0.039-0.686-0.059-1.299-0.059h-0.707v2.8h0.765c0.879,0,1.492-0.104,1.842-0.312
		C336.759,197.266,336.956,196.91,336.956,196.43z"/>
</g>
<g>
	<path fill="#282560" d="M166.757,169.805h-29.124L115.244,135.2v34.605H91.8V79.66h36.455c10.655,0,18.534,3.193,23.644,9.576
		c4.137,5.151,6.207,11.205,6.207,18.162c0,7.968-2.378,14.329-7.133,19.085c-3.038,3.037-7.221,5.15-12.547,6.339L166.757,169.805z
		 M133.803,108.684c0-3.203-1.172-5.903-3.513-8.099c-2.211-2.063-5.768-3.096-10.671-3.096h-4.375v22.454h4.375
		c4.947,0,8.505-1.03,10.671-3.094C132.631,114.61,133.803,111.889,133.803,108.684z"/>
	<path fill="#282560" d="M237.067,139.984c0,15.252-6.691,25.19-20.076,29.819c-4.668,1.629-9.687,2.445-15.059,2.445
		c-11.271,0-21.727-3.41-31.369-10.236l10.038-18.887c7.058,6.385,13.963,9.577,20.714,9.577c3.044,0,5.625-0.711,7.742-2.135
		c2.471-1.602,3.706-3.869,3.706-6.806c0-2.667-1.368-4.891-4.102-6.671c-2.029-1.333-5.448-2.69-10.255-4.068
		c-5.821-1.715-9.481-2.903-10.98-3.563c-2.382-1.01-4.41-2.198-6.086-3.562c-4.808-3.957-7.212-9.938-7.212-17.94
		c0-8.354,2.487-15.282,7.464-20.778c5.812-6.465,13.56-9.697,23.246-9.697c9.729,0,19.264,2.443,28.597,7.331l-9.379,18.226
		c-5.12-4.004-10.285-6.009-15.494-6.009c-2.517,0-4.767,0.643-6.753,1.923c-2.253,1.459-3.377,3.403-3.377,5.835
		c0,2.385,1.477,4.438,4.433,6.161c1.322,0.797,5.292,2.166,11.906,4.11c8.293,2.426,14.201,5.863,17.731,10.315
		C235.544,129.164,237.067,134.034,237.067,139.984z"/>
	<path fill="#282560" d="M340.2,119.746c0,9.774-1.101,17.743-3.302,23.907c-3.347,9.376-8.873,16.599-16.578,21.662
		c-7.439,4.842-16.245,7.266-26.416,7.266c-16.552,0-29.255-5.639-38.105-16.908c-6.691-8.541-10.039-18.733-10.039-30.577
		c0-13.118,3.919-24.147,11.756-33.085c8.894-10.172,21.311-15.257,37.249-15.257c10.652,0,19.68,2.731,27.075,8.188
		c5.283,3.874,9.796,9.6,13.54,17.171l-22.19,9.181c-1.898-4.207-4.107-7.362-6.628-9.467c-3.619-2.979-7.923-4.468-12.913-4.468
		c-10.203,0-17.314,5.249-21.333,15.746c-1.501,3.867-2.251,7.863-2.251,11.99c0,8.566,2.714,15.703,8.148,21.413
		c4.018,4.26,9.384,6.391,16.095,6.391c5.964,0,10.688-1.73,14.177-5.193c2.297-2.281,3.797-5.656,4.506-10.127h-19.284
		l8.674-17.832H340.2z"/>
</g>
<g>
</g>
<g>
</g>
<g>
</g>
<g>
</g>
<g>
</g>
<g>
</g>
</svg>
